# xmcd
#
# Track frame offsets: 
#        150
#        15626
#        34533
#        51090
#        68758
#        94872
#        120478
#        135974
#        154323
#        173493
#        188363
#        210033
#        227168
#        248695
#        268543
#        283819
#        299868
#        320900
#
# Disc length: 4577 seconds
#
# Revision: 1
# Processed by: cddbd v1.5.2PL0 Copyright (c) Steve Scherf et al.
# Submitted via: ExactAudioCopyFreeDBPlugin 1.0
#
DISCID=f611df12
DTITLE=Various Artist - The Greatest Love of All CD1
DYEAR=2014
DGENRE=Pop
TTITLE0=Phil Collins - Against All Odds -Take A Look At Me Now
TTITLE1=Diana Ross - When You Tell Me That You Love Me
TTITLE2=Vanessa Williams - Save The Best For Last
TTITLE3=Natalie Cole - Miss You Like Crazy
TTITLE4=Karyn White - Superwoman
TTITLE5=Spandau Ballet - True
TTITLE6=Simply Red - If You Don't Know Me By Now
TTITLE7=Craig David - Don't Love You No More-I'm Sorry
TTITLE8=Peabo Bryson - If Ever You're In My Arms Again
TTITLE9=Shakin' Stevens - Because I Love You
TTITLE10=Atlantic Starr - Always
TTITLE11=Chicago - You're The Inspiration
TTITLE12=Chaka Khan - Through The Fire
TTITLE13=Peter Catera - The Glory Of Love
TTITLE14=Tommy Paige - A Shoulder To Cry On
TTITLE15=Debbie Gibson - Lost In Your Eyes
TTITLE16=M2M - Pretty Boy
TTITLE17=LeAnn Rimes - How Do I Live
EXTD=
EXTT0=
EXTT1=
EXTT2=
EXTT3=
EXTT4=
EXTT5=
EXTT6=
EXTT7=
EXTT8=
EXTT9=
EXTT10=
EXTT11=
EXTT12=
EXTT13=
EXTT14=
EXTT15=
EXTT16=
EXTT17=
PLAYORDER=
